# xmcd
#
# Track frame offsets: 
#        150
#        16345
#        33520
#        52647
#        76567
#        99667
#        109942
#        131167
#        145717
#        158240
#        187715
#        213815
#        226712
#        246060
#        270812
#
# Disc length: 3843 seconds
#
# Revision: 2
# Processed by: cddbd v1.5.2PL0 Copyright (c) Steve Scherf et al.
# Submitted via: ExactAudioCopyFreeDBPlugin 1.0
#
DISCID=a90f010f
DTITLE=Joe Cocker - The best of Joe Cocker
DYEAR=1994
DGENRE=Blues
TTITLE0=I can stand a little rain
TTITLE1=It's a sin when you love somebody
TTITLE2=Jamaica say you will
TTITLE3=Just like a woman
TTITLE4=With a little help from my friends
TTITLE5=Lawdy Miss Clawdy
TTITLE6=Darling be home soon
TTITLE7=Pardon me sir
TTITLE8=Marjorine
TTITLE9=Bird on a wire
TTITLE10=Feelin' alright
TTITLE11=She came in through the bathroom window
TTITLE12=The letter
TTITLE13=Delta Lady
TTITLE14=Cry me a river
EXTD=
EXTT0=
EXTT1=
EXTT2=
EXTT3=
EXTT4=
EXTT5=
EXTT6=
EXTT7=
EXTT8=
EXTT9=LIve\n
EXTT10=Live\n\n
EXTT11=Live\n
EXTT12=Live
EXTT13=Live
EXTT14=Live\n
PLAYORDER=
